
<mxfile host="Electron" modified="2023-04-24T12:09:18.793Z" agent="Mozilla/5.0 (Windows NT 10.0; Win64; x64) AppleWebKit/537.36 (KHTML, like Gecko) draw.io/21.1.2 Chrome/106.0.5249.199 Electron/21.4.3 Safari/537.36" etag="wvReOZvtTAkXOY7Fsl86" version="21.1.2" type="device">
  <diagram name="‫עמוד-1‬" id="rkFVJ4aE5Ij6ZQvHDKRF">
    <mxGraphModel dx="2302" dy="1347" grid="1" gridSize="10" guides="1" tooltips="1" connect="1" arrows="1" fold="1" page="1" pageScale="1" pageWidth="827" pageHeight="1169" math="0" shadow="0">
      <root>
        <mxCell id="0" />
        <mxCell id="1" parent="0" />
        <mxCell id="ODd8JgYDGWRqZiN91gh2-188" style="edgeStyle=none;rounded=0;orthogonalLoop=1;jettySize=auto;html=1;entryX=0.5;entryY=0;entryDx=0;entryDy=0;startArrow=none;startFill=0;endArrow=none;endFill=0;" parent="1" source="ODd8JgYDGWRqZiN91gh2-10" target="ODd8JgYDGWRqZiN91gh2-12" edge="1">
          <mxGeometry relative="1" as="geometry">
            <Array as="points">
              <mxPoint x="1176" y="316.7" />
              <mxPoint x="996" y="316.7" />
            </Array>
          </mxGeometry>
        </mxCell>
        <mxCell id="ODd8JgYDGWRqZiN91gh2-189" style="edgeStyle=none;rounded=0;orthogonalLoop=1;jettySize=auto;html=1;entryX=0.5;entryY=0;entryDx=0;entryDy=0;startArrow=none;startFill=0;endArrow=none;endFill=0;" parent="1" source="ODd8JgYDGWRqZiN91gh2-10" target="ODd8JgYDGWRqZiN91gh2-29" edge="1">
          <mxGeometry relative="1" as="geometry">
            <Array as="points">
              <mxPoint x="1176" y="316.7" />
              <mxPoint x="1550" y="320" />
            </Array>
          </mxGeometry>
        </mxCell>
        <mxCell id="ODd8JgYDGWRqZiN91gh2-10" value="Market Controller" style="html=1;" parent="1" vertex="1">
          <mxGeometry x="1116" y="216.7" width="120" height="40" as="geometry" />
        </mxCell>
        <mxCell id="v24xrxlarrLK1afdBzj7-1" style="edgeStyle=orthogonalEdgeStyle;rounded=0;orthogonalLoop=1;jettySize=auto;html=1;entryX=0.25;entryY=0;entryDx=0;entryDy=0;endArrow=none;endFill=0;" parent="1" source="ODd8JgYDGWRqZiN91gh2-11" target="ODd8JgYDGWRqZiN91gh2-123" edge="1">
          <mxGeometry relative="1" as="geometry">
            <Array as="points">
              <mxPoint x="210" y="242" />
              <mxPoint x="210" y="440" />
              <mxPoint x="270" y="440" />
            </Array>
          </mxGeometry>
        </mxCell>
        <mxCell id="ODd8JgYDGWRqZiN91gh2-11" value="User controller" style="html=1;" parent="1" vertex="1">
          <mxGeometry x="240" y="221.7" width="120" height="40" as="geometry" />
        </mxCell>
        <mxCell id="ODd8JgYDGWRqZiN91gh2-12" value="store controller" style="html=1;" parent="1" vertex="1">
          <mxGeometry x="936" y="360" width="120" height="41.7" as="geometry" />
        </mxCell>
        <mxCell id="ODd8JgYDGWRqZiN91gh2-83" style="edgeStyle=none;rounded=0;orthogonalLoop=1;jettySize=auto;html=1;startArrow=none;startFill=0;endArrow=none;endFill=0;entryX=0;entryY=0.5;entryDx=0;entryDy=0;exitX=1;exitY=0.5;exitDx=0;exitDy=0;" parent="1" source="ODd8JgYDGWRqZiN91gh2-43" target="ODd8JgYDGWRqZiN91gh2-76" edge="1">
          <mxGeometry relative="1" as="geometry">
            <mxPoint x="250" y="496.6999999999998" as="sourcePoint" />
            <Array as="points">
              <mxPoint x="400" y="360" />
              <mxPoint x="570" y="360" />
            </Array>
          </mxGeometry>
        </mxCell>
        <mxCell id="ODd8JgYDGWRqZiN91gh2-17" value="1" style="endArrow=none;html=1;endSize=12;startArrow=none;startSize=14;startFill=0;edgeStyle=orthogonalEdgeStyle;align=left;verticalAlign=bottom;rounded=0;endFill=0;exitX=0.5;exitY=1;exitDx=0;exitDy=0;" parent="1" source="ODd8JgYDGWRqZiN91gh2-11" target="ODd8JgYDGWRqZiN91gh2-43" edge="1">
          <mxGeometry x="-0.5199" y="-20" relative="1" as="geometry">
            <mxPoint x="280" y="310" as="sourcePoint" />
            <mxPoint x="310" y="480" as="targetPoint" />
            <mxPoint as="offset" />
            <Array as="points" />
          </mxGeometry>
        </mxCell>
        <mxCell id="ODd8JgYDGWRqZiN91gh2-46" value="1..n" style="edgeLabel;html=1;align=center;verticalAlign=middle;resizable=0;points=[];" parent="ODd8JgYDGWRqZiN91gh2-17" vertex="1" connectable="0">
          <mxGeometry x="0.8767" y="3" relative="1" as="geometry">
            <mxPoint x="-33" y="-4" as="offset" />
          </mxGeometry>
        </mxCell>
        <mxCell id="Q3EcY2VjpeWDla9Mks9k-8" style="edgeStyle=orthogonalEdgeStyle;rounded=0;orthogonalLoop=1;jettySize=auto;html=1;entryX=0;entryY=0.5;entryDx=0;entryDy=0;endArrow=none;endFill=0;" parent="1" source="ODd8JgYDGWRqZiN91gh2-18" target="yxRQthmmu6O1LKz6OyQO-40" edge="1">
          <mxGeometry relative="1" as="geometry">
            <mxPoint x="595" y="548.68" as="targetPoint" />
            <Array as="points">
              <mxPoint x="600" y="550" />
            </Array>
          </mxGeometry>
        </mxCell>
        <mxCell id="ODd8JgYDGWRqZiN91gh2-18" value="userState" style="html=1;" parent="1" vertex="1">
          <mxGeometry x="430" y="535" width="130" height="35" as="geometry" />
        </mxCell>
        <mxCell id="ODd8JgYDGWRqZiN91gh2-21" style="edgeStyle=orthogonalEdgeStyle;rounded=0;orthogonalLoop=1;jettySize=auto;html=1;endArrow=none;endFill=0;" parent="1" source="ODd8JgYDGWRqZiN91gh2-20" edge="1">
          <mxGeometry relative="1" as="geometry">
            <mxPoint x="660" y="180" as="targetPoint" />
          </mxGeometry>
        </mxCell>
        <mxCell id="-APXzpNi7e3R-6h7DP6N-12" style="edgeStyle=orthogonalEdgeStyle;rounded=0;orthogonalLoop=1;jettySize=auto;html=1;entryX=0;entryY=0.5;entryDx=0;entryDy=0;endArrow=none;endFill=0;" parent="1" source="ODd8JgYDGWRqZiN91gh2-20" target="ODd8JgYDGWRqZiN91gh2-85" edge="1">
          <mxGeometry relative="1" as="geometry">
            <mxPoint x="220" y="730" as="targetPoint" />
            <Array as="points">
              <mxPoint x="140" y="70" />
              <mxPoint x="140" y="600" />
              <mxPoint x="240" y="600" />
            </Array>
          </mxGeometry>
        </mxCell>
        <mxCell id="f4669zx7-eFwIOXkD8-4-4" style="edgeStyle=orthogonalEdgeStyle;rounded=0;orthogonalLoop=1;jettySize=auto;html=1;entryX=0.5;entryY=0;entryDx=0;entryDy=0;endArrow=none;endFill=0;" parent="1" source="ODd8JgYDGWRqZiN91gh2-20" target="f4669zx7-eFwIOXkD8-4-3" edge="1">
          <mxGeometry relative="1" as="geometry">
            <Array as="points">
              <mxPoint x="660" y="180" />
              <mxPoint x="1360" y="180" />
            </Array>
          </mxGeometry>
        </mxCell>
        <mxCell id="ODd8JgYDGWRqZiN91gh2-20" value="Market" style="html=1;" parent="1" vertex="1">
          <mxGeometry x="600" y="40" width="120" height="40" as="geometry" />
        </mxCell>
        <mxCell id="ODd8JgYDGWRqZiN91gh2-25" style="edgeStyle=orthogonalEdgeStyle;rounded=0;orthogonalLoop=1;jettySize=auto;html=1;entryX=0.5;entryY=0;entryDx=0;entryDy=0;endArrow=none;endFill=0;" parent="1" target="ODd8JgYDGWRqZiN91gh2-11" edge="1">
          <mxGeometry relative="1" as="geometry">
            <mxPoint x="640" y="180" as="sourcePoint" />
            <Array as="points">
              <mxPoint x="300" y="180" />
            </Array>
          </mxGeometry>
        </mxCell>
        <mxCell id="ODd8JgYDGWRqZiN91gh2-140" style="edgeStyle=none;rounded=0;orthogonalLoop=1;jettySize=auto;html=1;entryX=0.5;entryY=0;entryDx=0;entryDy=0;startArrow=none;startFill=0;endArrow=none;endFill=0;" parent="1" target="-APXzpNi7e3R-6h7DP6N-36" edge="1">
          <mxGeometry relative="1" as="geometry">
            <Array as="points">
              <mxPoint x="660" y="180" />
              <mxPoint x="505" y="180" />
            </Array>
            <mxPoint x="500" y="216.70000000000016" as="targetPoint" />
            <mxPoint x="660" y="160" as="sourcePoint" />
          </mxGeometry>
        </mxCell>
        <mxCell id="ODd8JgYDGWRqZiN91gh2-141" style="edgeStyle=none;rounded=0;orthogonalLoop=1;jettySize=auto;html=1;entryX=0.5;entryY=0;entryDx=0;entryDy=0;startArrow=none;startFill=0;endArrow=none;endFill=0;" parent="1" target="-APXzpNi7e3R-6h7DP6N-34" edge="1">
          <mxGeometry relative="1" as="geometry">
            <Array as="points">
              <mxPoint x="660" y="180" />
              <mxPoint x="815" y="180" />
            </Array>
            <mxPoint x="805.9999999999995" y="216.70000000000016" as="targetPoint" />
            <mxPoint x="660" y="160" as="sourcePoint" />
          </mxGeometry>
        </mxCell>
        <mxCell id="-APXzpNi7e3R-6h7DP6N-39" style="edgeStyle=orthogonalEdgeStyle;rounded=0;orthogonalLoop=1;jettySize=auto;html=1;entryX=0.5;entryY=0;entryDx=0;entryDy=0;endArrow=none;endFill=0;" parent="1" target="-APXzpNi7e3R-6h7DP6N-20" edge="1">
          <mxGeometry relative="1" as="geometry">
            <mxPoint x="660" y="160" as="sourcePoint" />
          </mxGeometry>
        </mxCell>
        <mxCell id="ODd8JgYDGWRqZiN91gh2-185" style="edgeStyle=none;rounded=0;orthogonalLoop=1;jettySize=auto;html=1;exitX=0.5;exitY=1;exitDx=0;exitDy=0;entryX=0.5;entryY=0;entryDx=0;entryDy=0;startArrow=none;startFill=0;endArrow=none;endFill=0;" parent="1" source="ODd8JgYDGWRqZiN91gh2-27" target="ODd8JgYDGWRqZiN91gh2-184" edge="1">
          <mxGeometry relative="1" as="geometry">
            <Array as="points">
              <mxPoint x="996" y="560" />
              <mxPoint x="1344" y="560" />
            </Array>
          </mxGeometry>
        </mxCell>
        <mxCell id="ODd8JgYDGWRqZiN91gh2-186" style="edgeStyle=none;rounded=0;orthogonalLoop=1;jettySize=auto;html=1;exitX=0.5;exitY=1;exitDx=0;exitDy=0;entryX=0.5;entryY=0;entryDx=0;entryDy=0;startArrow=none;startFill=0;endArrow=none;endFill=0;" parent="1" source="ODd8JgYDGWRqZiN91gh2-27" target="Y32BuV7cdeY4dN6Mmz1U-1" edge="1">
          <mxGeometry relative="1" as="geometry">
            <Array as="points">
              <mxPoint x="996" y="560" />
              <mxPoint x="856" y="560" />
            </Array>
            <mxPoint x="856" y="710" as="targetPoint" />
          </mxGeometry>
        </mxCell>
        <mxCell id="p_VHPN1_gjO6qZcoMLTe-158" style="edgeStyle=orthogonalEdgeStyle;rounded=0;orthogonalLoop=1;jettySize=auto;html=1;exitX=0.25;exitY=0;exitDx=0;exitDy=0;entryX=1;entryY=0.5;entryDx=0;entryDy=0;startArrow=none;startFill=0;endArrow=none;endFill=0;" parent="1" source="ODd8JgYDGWRqZiN91gh2-27" target="p_VHPN1_gjO6qZcoMLTe-157" edge="1">
          <mxGeometry relative="1" as="geometry" />
        </mxCell>
        <mxCell id="Ld3xxpGqD0_XtxCi6bYy-3" style="edgeStyle=orthogonalEdgeStyle;rounded=0;orthogonalLoop=1;jettySize=auto;html=1;endArrow=none;endFill=0;" edge="1" parent="1" source="ODd8JgYDGWRqZiN91gh2-27" target="Ld3xxpGqD0_XtxCi6bYy-2">
          <mxGeometry relative="1" as="geometry">
            <Array as="points">
              <mxPoint x="996" y="540" />
              <mxPoint x="1204" y="540" />
            </Array>
          </mxGeometry>
        </mxCell>
        <mxCell id="ODd8JgYDGWRqZiN91gh2-27" value="store" style="html=1;" parent="1" vertex="1">
          <mxGeometry x="936" y="476.7" width="120" height="40" as="geometry" />
        </mxCell>
        <mxCell id="ODd8JgYDGWRqZiN91gh2-29" value="Order controller" style="html=1;" parent="1" vertex="1">
          <mxGeometry x="1490" y="342.38" width="120" height="40" as="geometry" />
        </mxCell>
        <mxCell id="p_VHPN1_gjO6qZcoMLTe-162" style="edgeStyle=orthogonalEdgeStyle;rounded=0;orthogonalLoop=1;jettySize=auto;html=1;entryX=0;entryY=0.75;entryDx=0;entryDy=0;startArrow=none;startFill=0;endArrow=none;endFill=0;" parent="1" source="ODd8JgYDGWRqZiN91gh2-35" target="ODd8JgYDGWRqZiN91gh2-27" edge="1">
          <mxGeometry relative="1" as="geometry">
            <Array as="points">
              <mxPoint x="670" y="790" />
              <mxPoint x="670" y="720" />
              <mxPoint x="760" y="720" />
              <mxPoint x="760" y="507" />
            </Array>
          </mxGeometry>
        </mxCell>
        <mxCell id="ODd8JgYDGWRqZiN91gh2-35" value="shop Owner" style="html=1;" parent="1" vertex="1">
          <mxGeometry x="515" y="769.9999999999999" width="120" height="40" as="geometry" />
        </mxCell>
        <mxCell id="-APXzpNi7e3R-6h7DP6N-9" style="edgeStyle=orthogonalEdgeStyle;rounded=0;orthogonalLoop=1;jettySize=auto;html=1;entryX=0;entryY=0.5;entryDx=0;entryDy=0;endArrow=none;endFill=0;" parent="1" source="ODd8JgYDGWRqZiN91gh2-36" target="ODd8JgYDGWRqZiN91gh2-35" edge="1">
          <mxGeometry relative="1" as="geometry" />
        </mxCell>
        <mxCell id="ODd8JgYDGWRqZiN91gh2-36" value="shop manager" style="html=1;" parent="1" vertex="1">
          <mxGeometry x="355" y="769.9999999999999" width="120" height="40" as="geometry" />
        </mxCell>
        <mxCell id="ODd8JgYDGWRqZiN91gh2-37" value="shop creator" style="html=1;" parent="1" vertex="1">
          <mxGeometry x="515" y="713.3" width="120" height="37.38" as="geometry" />
        </mxCell>
        <mxCell id="-APXzpNi7e3R-6h7DP6N-8" style="edgeStyle=orthogonalEdgeStyle;rounded=0;orthogonalLoop=1;jettySize=auto;html=1;entryX=-0.002;entryY=0.457;entryDx=0;entryDy=0;entryPerimeter=0;endArrow=none;endFill=0;" parent="1" source="ODd8JgYDGWRqZiN91gh2-38" target="ODd8JgYDGWRqZiN91gh2-37" edge="1">
          <mxGeometry relative="1" as="geometry" />
        </mxCell>
        <mxCell id="ODd8JgYDGWRqZiN91gh2-38" value="seller" style="html=1;" parent="1" vertex="1">
          <mxGeometry x="355" y="710.6799999999998" width="120" height="40" as="geometry" />
        </mxCell>
        <mxCell id="ODd8JgYDGWRqZiN91gh2-43" value="guest" style="html=1;" parent="1" vertex="1">
          <mxGeometry x="240" y="339.99999999999994" width="120" height="40" as="geometry" />
        </mxCell>
        <mxCell id="ODd8JgYDGWRqZiN91gh2-49" value="" style="endArrow=none;endFill=0;endSize=24;html=1;rounded=0;exitX=0.5;exitY=0;exitDx=0;exitDy=0;entryX=0.5;entryY=1;entryDx=0;entryDy=0;startArrow=none;startFill=0;" parent="1" source="ODd8JgYDGWRqZiN91gh2-27" target="ODd8JgYDGWRqZiN91gh2-12" edge="1">
          <mxGeometry width="160" relative="1" as="geometry">
            <mxPoint x="620" y="491.7" as="sourcePoint" />
            <mxPoint x="1036" y="416.7" as="targetPoint" />
          </mxGeometry>
        </mxCell>
        <mxCell id="ODd8JgYDGWRqZiN91gh2-52" value="product" style="html=1;" parent="1" vertex="1">
          <mxGeometry x="1144" y="676.65" width="120" height="40" as="geometry" />
        </mxCell>
        <mxCell id="ODd8JgYDGWRqZiN91gh2-55" value="order" style="html=1;" parent="1" vertex="1">
          <mxGeometry x="1490" y="457.38" width="120" height="40" as="geometry" />
        </mxCell>
        <mxCell id="ODd8JgYDGWRqZiN91gh2-58" value="" style="endArrow=none;endFill=0;endSize=24;html=1;rounded=0;exitX=0.5;exitY=0;exitDx=0;exitDy=0;entryX=0.5;entryY=1;entryDx=0;entryDy=0;startArrow=none;startFill=0;" parent="1" source="ODd8JgYDGWRqZiN91gh2-55" target="ODd8JgYDGWRqZiN91gh2-29" edge="1">
          <mxGeometry width="160" relative="1" as="geometry">
            <mxPoint x="1553" y="387.38" as="sourcePoint" />
            <mxPoint x="1486" y="427.38" as="targetPoint" />
          </mxGeometry>
        </mxCell>
        <mxCell id="ODd8JgYDGWRqZiN91gh2-70" value="&lt;Enum&gt;&#xa;Status" style="swimlane;fontStyle=0;childLayout=stackLayout;horizontal=1;startSize=26;fillColor=none;horizontalStack=0;resizeParent=1;resizeParentMax=0;resizeLast=0;collapsible=1;marginBottom=0;" parent="1" vertex="1">
          <mxGeometry x="1490" y="587.38" width="120" height="130" as="geometry" />
        </mxCell>
        <mxCell id="ODd8JgYDGWRqZiN91gh2-71" value="+ pending" style="text;strokeColor=none;fillColor=none;align=left;verticalAlign=top;spacingLeft=4;spacingRight=4;overflow=hidden;rotatable=0;points=[[0,0.5],[1,0.5]];portConstraint=eastwest;" parent="ODd8JgYDGWRqZiN91gh2-70" vertex="1">
          <mxGeometry y="26" width="120" height="26" as="geometry" />
        </mxCell>
        <mxCell id="ODd8JgYDGWRqZiN91gh2-72" value="+ submit" style="text;strokeColor=none;fillColor=none;align=left;verticalAlign=top;spacingLeft=4;spacingRight=4;overflow=hidden;rotatable=0;points=[[0,0.5],[1,0.5]];portConstraint=eastwest;" parent="ODd8JgYDGWRqZiN91gh2-70" vertex="1">
          <mxGeometry y="52" width="120" height="26" as="geometry" />
        </mxCell>
        <mxCell id="ODd8JgYDGWRqZiN91gh2-74" value="+ deliverd" style="text;strokeColor=none;fillColor=none;align=left;verticalAlign=top;spacingLeft=4;spacingRight=4;overflow=hidden;rotatable=0;points=[[0,0.5],[1,0.5]];portConstraint=eastwest;" parent="ODd8JgYDGWRqZiN91gh2-70" vertex="1">
          <mxGeometry y="78" width="120" height="26" as="geometry" />
        </mxCell>
        <mxCell id="ODd8JgYDGWRqZiN91gh2-73" value="+ cancel" style="text;strokeColor=none;fillColor=none;align=left;verticalAlign=top;spacingLeft=4;spacingRight=4;overflow=hidden;rotatable=0;points=[[0,0.5],[1,0.5]];portConstraint=eastwest;" parent="ODd8JgYDGWRqZiN91gh2-70" vertex="1">
          <mxGeometry y="104" width="120" height="26" as="geometry" />
        </mxCell>
        <mxCell id="ODd8JgYDGWRqZiN91gh2-75" value="" style="endArrow=none;endFill=0;endSize=12;html=1;rounded=0;exitX=0.5;exitY=1;exitDx=0;exitDy=0;entryX=0.5;entryY=0;entryDx=0;entryDy=0;startArrow=none;startFill=0;" parent="1" source="ODd8JgYDGWRqZiN91gh2-55" target="ODd8JgYDGWRqZiN91gh2-70" edge="1">
          <mxGeometry width="160" relative="1" as="geometry">
            <mxPoint x="1537" y="547.38" as="sourcePoint" />
            <mxPoint x="1697" y="547.38" as="targetPoint" />
          </mxGeometry>
        </mxCell>
        <mxCell id="-APXzpNi7e3R-6h7DP6N-27" style="edgeStyle=orthogonalEdgeStyle;rounded=0;orthogonalLoop=1;jettySize=auto;html=1;entryX=0;entryY=0.5;entryDx=0;entryDy=0;endArrow=none;endFill=0;" parent="1" source="ODd8JgYDGWRqZiN91gh2-76" target="ODd8JgYDGWRqZiN91gh2-10" edge="1">
          <mxGeometry relative="1" as="geometry" />
        </mxCell>
        <mxCell id="ODd8JgYDGWRqZiN91gh2-76" value="Shopping cart" style="html=1;" parent="1" vertex="1">
          <mxGeometry x="580" y="340" width="110" height="40" as="geometry" />
        </mxCell>
        <mxCell id="ODd8JgYDGWRqZiN91gh2-77" value="Basket" style="html=1;" parent="1" vertex="1">
          <mxGeometry x="580" y="420.05" width="110" height="40" as="geometry" />
        </mxCell>
        <mxCell id="ODd8JgYDGWRqZiN91gh2-82" value="" style="endArrow=none;endFill=0;endSize=24;html=1;rounded=0;exitX=0.5;exitY=0;exitDx=0;exitDy=0;" parent="1" source="ODd8JgYDGWRqZiN91gh2-77" target="ODd8JgYDGWRqZiN91gh2-76" edge="1">
          <mxGeometry width="160" relative="1" as="geometry">
            <mxPoint x="-10.000000000000007" y="543.35" as="sourcePoint" />
            <mxPoint x="-30.000000000000007" y="533.35" as="targetPoint" />
          </mxGeometry>
        </mxCell>
        <mxCell id="ODd8JgYDGWRqZiN91gh2-85" value="Admin" style="html=1;" parent="1" vertex="1">
          <mxGeometry x="240" y="580" width="120" height="40" as="geometry" />
        </mxCell>
        <mxCell id="ODd8JgYDGWRqZiN91gh2-110" value="Extends" style="endArrow=block;endSize=16;endFill=0;html=1;rounded=0;entryX=0.5;entryY=1;entryDx=0;entryDy=0;" parent="1" target="ODd8JgYDGWRqZiN91gh2-18" edge="1">
          <mxGeometry x="0.6068" y="35" width="160" relative="1" as="geometry">
            <mxPoint x="495" y="790.68" as="sourcePoint" />
            <mxPoint x="155" y="679.5799999999999" as="targetPoint" />
            <Array as="points" />
            <mxPoint as="offset" />
          </mxGeometry>
        </mxCell>
        <mxCell id="f4669zx7-eFwIOXkD8-4-1" style="edgeStyle=orthogonalEdgeStyle;rounded=0;orthogonalLoop=1;jettySize=auto;html=1;entryX=0;entryY=0.5;entryDx=0;entryDy=0;endArrow=none;endFill=0;" parent="1" source="ODd8JgYDGWRqZiN91gh2-123" target="ODd8JgYDGWRqZiN91gh2-76" edge="1">
          <mxGeometry relative="1" as="geometry">
            <Array as="points">
              <mxPoint x="480" y="490" />
              <mxPoint x="480" y="370" />
              <mxPoint x="580" y="370" />
            </Array>
          </mxGeometry>
        </mxCell>
        <mxCell id="Ld3xxpGqD0_XtxCi6bYy-6" style="edgeStyle=orthogonalEdgeStyle;rounded=0;orthogonalLoop=1;jettySize=auto;html=1;endArrow=none;endFill=0;" edge="1" parent="1" source="ODd8JgYDGWRqZiN91gh2-123" target="ODd8JgYDGWRqZiN91gh2-43">
          <mxGeometry relative="1" as="geometry" />
        </mxCell>
        <mxCell id="ODd8JgYDGWRqZiN91gh2-123" value="member" style="html=1;" parent="1" vertex="1">
          <mxGeometry x="240" y="476.7" width="120" height="40" as="geometry" />
        </mxCell>
        <mxCell id="ODd8JgYDGWRqZiN91gh2-126" value="" style="endArrow=none;endFill=0;endSize=24;html=1;rounded=0;exitX=0.5;exitY=0;exitDx=0;exitDy=0;startArrow=none;startFill=0;" parent="1" source="ODd8JgYDGWRqZiN91gh2-18" edge="1">
          <mxGeometry width="160" relative="1" as="geometry">
            <mxPoint x="370" y="770" as="sourcePoint" />
            <mxPoint x="360" y="480" as="targetPoint" />
            <Array as="points">
              <mxPoint x="495" y="480" />
              <mxPoint x="400" y="480" />
            </Array>
          </mxGeometry>
        </mxCell>
        <mxCell id="yxRQthmmu6O1LKz6OyQO-62" style="edgeStyle=orthogonalEdgeStyle;rounded=0;orthogonalLoop=1;jettySize=auto;html=1;fontSize=12;endArrow=none;endFill=0;exitX=1;exitY=0.5;exitDx=0;exitDy=0;" parent="1" source="ODd8JgYDGWRqZiN91gh2-123" target="ODd8JgYDGWRqZiN91gh2-27" edge="1">
          <mxGeometry relative="1" as="geometry">
            <mxPoint x="370" y="496.6999999999998" as="sourcePoint" />
            <Array as="points">
              <mxPoint x="360" y="500" />
            </Array>
          </mxGeometry>
        </mxCell>
        <mxCell id="ODd8JgYDGWRqZiN91gh2-139" style="edgeStyle=orthogonalEdgeStyle;rounded=0;orthogonalLoop=1;jettySize=auto;html=1;entryX=0.5;entryY=0;entryDx=0;entryDy=0;exitX=0.5;exitY=1;exitDx=0;exitDy=0;startArrow=none;endArrow=none;endFill=0;" parent="1" target="ODd8JgYDGWRqZiN91gh2-10" edge="1">
          <mxGeometry relative="1" as="geometry">
            <mxPoint x="660" y="160" as="sourcePoint" />
            <mxPoint x="230" y="210" as="targetPoint" />
            <Array as="points">
              <mxPoint x="660" y="180" />
              <mxPoint x="1176" y="180" />
            </Array>
          </mxGeometry>
        </mxCell>
        <mxCell id="ODd8JgYDGWRqZiN91gh2-175" value="" style="group" parent="1" vertex="1" connectable="0">
          <mxGeometry x="1090" y="779.3199999999998" width="210" height="283.3" as="geometry" />
        </mxCell>
        <mxCell id="ODd8JgYDGWRqZiN91gh2-147" value="&lt;p style=&quot;margin:0px;margin-top:4px;text-align:center;&quot;&gt;&lt;i&gt;&amp;lt;&amp;lt;Interface&amp;gt;&amp;gt;&lt;/i&gt;&lt;br&gt;&lt;b&gt;DiscountFormat&lt;/b&gt;&lt;/p&gt;&lt;hr size=&quot;1&quot;&gt;&lt;p style=&quot;margin:0px;margin-left:4px;&quot;&gt;+ applyDiscount()&lt;br&gt;&lt;br&gt;&lt;/p&gt;" style="verticalAlign=top;align=left;overflow=fill;fontSize=12;fontFamily=Helvetica;html=1;" parent="ODd8JgYDGWRqZiN91gh2-175" vertex="1">
          <mxGeometry x="70" width="140" height="65.38410814375207" as="geometry" />
        </mxCell>
        <mxCell id="ODd8JgYDGWRqZiN91gh2-160" value="ConditionalDiscount" style="html=1;" parent="ODd8JgYDGWRqZiN91gh2-175" vertex="1">
          <mxGeometry y="198.3" width="120" height="31.7" as="geometry" />
        </mxCell>
        <mxCell id="ODd8JgYDGWRqZiN91gh2-162" value="HiddenDiscount" style="html=1;" parent="ODd8JgYDGWRqZiN91gh2-175" vertex="1">
          <mxGeometry y="250.7" width="120" height="29.3" as="geometry" />
        </mxCell>
        <mxCell id="ODd8JgYDGWRqZiN91gh2-163" value="VisibleDiscount" style="html=1;" parent="ODd8JgYDGWRqZiN91gh2-175" vertex="1">
          <mxGeometry y="138.61430926475427" width="120" height="32.598648203099245" as="geometry" />
        </mxCell>
        <mxCell id="ODd8JgYDGWRqZiN91gh2-166" value="" style="endArrow=block;dashed=1;endFill=0;endSize=12;html=1;rounded=0;entryX=0.5;entryY=1;entryDx=0;entryDy=0;" parent="ODd8JgYDGWRqZiN91gh2-175" target="ODd8JgYDGWRqZiN91gh2-147" edge="1">
          <mxGeometry width="160" relative="1" as="geometry">
            <mxPoint x="140" y="264.6188262446423" as="sourcePoint" />
            <mxPoint x="150" y="68.46650181338605" as="targetPoint" />
            <Array as="points">
              <mxPoint x="140" y="180.55354434553246" />
              <mxPoint x="140" y="77.80708869106492" />
            </Array>
          </mxGeometry>
        </mxCell>
        <mxCell id="ODd8JgYDGWRqZiN91gh2-167" value="" style="html=1;verticalAlign=bottom;endArrow=none;dashed=1;endSize=8;rounded=0;endFill=0;" parent="ODd8JgYDGWRqZiN91gh2-175" source="ODd8JgYDGWRqZiN91gh2-163" edge="1">
          <mxGeometry relative="1" as="geometry">
            <mxPoint x="170" y="157.16471480382464" as="sourcePoint" />
            <mxPoint x="140" y="96.48826244642267" as="targetPoint" />
            <Array as="points">
              <mxPoint x="140" y="152.53178371249587" />
            </Array>
          </mxGeometry>
        </mxCell>
        <mxCell id="ODd8JgYDGWRqZiN91gh2-168" value="" style="html=1;verticalAlign=bottom;endArrow=none;dashed=1;endSize=8;rounded=0;endFill=0;exitX=1;exitY=0.5;exitDx=0;exitDy=0;" parent="ODd8JgYDGWRqZiN91gh2-175" source="ODd8JgYDGWRqZiN91gh2-160" edge="1">
          <mxGeometry relative="1" as="geometry">
            <mxPoint x="170" y="213.2455984174085" as="sourcePoint" />
            <mxPoint x="140" y="77.80708869106492" as="targetPoint" />
            <Array as="points">
              <mxPoint x="140" y="213.2455984174085" />
            </Array>
          </mxGeometry>
        </mxCell>
        <mxCell id="ODd8JgYDGWRqZiN91gh2-169" value="" style="html=1;verticalAlign=bottom;endArrow=none;dashed=1;endSize=8;rounded=0;endFill=0;" parent="ODd8JgYDGWRqZiN91gh2-175" source="ODd8JgYDGWRqZiN91gh2-162" edge="1">
          <mxGeometry relative="1" as="geometry">
            <mxPoint x="170" y="269.2828926255633" as="sourcePoint" />
            <mxPoint x="140" y="77.80708869106492" as="targetPoint" />
            <Array as="points">
              <mxPoint x="140" y="264.6188262446423" />
              <mxPoint x="140" y="77.80708869106492" />
            </Array>
          </mxGeometry>
        </mxCell>
        <mxCell id="ODd8JgYDGWRqZiN91gh2-181" value="1..3" style="text;html=1;align=center;verticalAlign=middle;resizable=0;points=[];autosize=1;strokeColor=none;fillColor=none;" parent="1" vertex="1">
          <mxGeometry x="1184" y="749.32" width="40" height="30" as="geometry" />
        </mxCell>
        <mxCell id="Y32BuV7cdeY4dN6Mmz1U-3" style="edgeStyle=orthogonalEdgeStyle;rounded=0;orthogonalLoop=1;jettySize=auto;html=1;entryX=0.5;entryY=0;entryDx=0;entryDy=0;endArrow=none;endFill=0;" parent="1" source="ODd8JgYDGWRqZiN91gh2-184" target="ODd8JgYDGWRqZiN91gh2-147" edge="1">
          <mxGeometry relative="1" as="geometry" />
        </mxCell>
        <mxCell id="Y32BuV7cdeY4dN6Mmz1U-14" style="edgeStyle=orthogonalEdgeStyle;rounded=0;orthogonalLoop=1;jettySize=auto;html=1;entryX=0.5;entryY=0;entryDx=0;entryDy=0;startArrow=none;startFill=0;endArrow=none;endFill=0;" parent="1" source="ODd8JgYDGWRqZiN91gh2-184" target="Y32BuV7cdeY4dN6Mmz1U-11" edge="1">
          <mxGeometry relative="1" as="geometry" />
        </mxCell>
        <mxCell id="ODd8JgYDGWRqZiN91gh2-184" value="Discount Policy" style="html=1;" parent="1" vertex="1">
          <mxGeometry x="1294" y="680" width="100" height="36.65" as="geometry" />
        </mxCell>
        <mxCell id="yxRQthmmu6O1LKz6OyQO-16" value="" style="endArrow=none;endFill=0;endSize=24;html=1;rounded=0;exitX=0.5;exitY=0;exitDx=0;exitDy=0;entryX=0.5;entryY=1;entryDx=0;entryDy=0;startArrow=none;startFill=0;" parent="1" source="ODd8JgYDGWRqZiN91gh2-52" target="Ld3xxpGqD0_XtxCi6bYy-2" edge="1">
          <mxGeometry width="160" relative="1" as="geometry">
            <mxPoint x="1101" y="406.7" as="sourcePoint" />
            <mxPoint x="1096" y="466.7" as="targetPoint" />
            <Array as="points" />
          </mxGeometry>
        </mxCell>
        <mxCell id="yxRQthmmu6O1LKz6OyQO-40" value="Permission" style="html=1;fontSize=12;" parent="1" vertex="1">
          <mxGeometry x="600" y="526.6999999999999" width="110" height="50" as="geometry" />
        </mxCell>
        <mxCell id="yxRQthmmu6O1LKz6OyQO-52" value="&lt;&lt;Enumiration&gt;&gt;&#xa;Action" style="swimlane;fontStyle=0;childLayout=stackLayout;horizontal=1;startSize=26;fillColor=none;horizontalStack=0;resizeParent=1;resizeParentMax=0;resizeLast=0;collapsible=1;marginBottom=0;fontSize=12;" parent="1" vertex="1">
          <mxGeometry x="609.25" y="614.38" width="91.5" height="78" as="geometry">
            <mxRectangle x="600" y="610" width="130" height="40" as="alternateBounds" />
          </mxGeometry>
        </mxCell>
        <mxCell id="yxRQthmmu6O1LKz6OyQO-53" value="addProduct" style="text;strokeColor=none;fillColor=none;align=left;verticalAlign=top;spacingLeft=4;spacingRight=4;overflow=hidden;rotatable=0;points=[[0,0.5],[1,0.5]];portConstraint=eastwest;fontSize=12;" parent="yxRQthmmu6O1LKz6OyQO-52" vertex="1">
          <mxGeometry y="26" width="91.5" height="26" as="geometry" />
        </mxCell>
        <mxCell id="yxRQthmmu6O1LKz6OyQO-54" value="removeProduct" style="text;strokeColor=none;fillColor=none;align=left;verticalAlign=top;spacingLeft=4;spacingRight=4;overflow=hidden;rotatable=0;points=[[0,0.5],[1,0.5]];portConstraint=eastwest;fontSize=12;" parent="yxRQthmmu6O1LKz6OyQO-52" vertex="1">
          <mxGeometry y="52" width="91.5" height="26" as="geometry" />
        </mxCell>
        <mxCell id="yxRQthmmu6O1LKz6OyQO-56" value="" style="endArrow=none;endFill=0;endSize=24;html=1;rounded=0;entryX=0.5;entryY=1;entryDx=0;entryDy=0;startArrow=none;startFill=0;exitX=0.5;exitY=0;exitDx=0;exitDy=0;" parent="1" source="yxRQthmmu6O1LKz6OyQO-52" target="yxRQthmmu6O1LKz6OyQO-40" edge="1">
          <mxGeometry width="160" relative="1" as="geometry">
            <mxPoint x="633" y="616.7" as="sourcePoint" />
            <mxPoint x="633" y="569.3999999999996" as="targetPoint" />
          </mxGeometry>
        </mxCell>
        <mxCell id="yxRQthmmu6O1LKz6OyQO-57" value="1" style="text;html=1;align=center;verticalAlign=middle;resizable=0;points=[];autosize=1;strokeColor=none;fillColor=none;fontSize=12;" parent="1" vertex="1">
          <mxGeometry x="360" y="331.6999999999999" width="30" height="30" as="geometry" />
        </mxCell>
        <mxCell id="8mWVaUGxtgPUPD3ItH42-1" value="1..n" style="text;html=1;align=center;verticalAlign=middle;resizable=0;points=[];autosize=1;strokeColor=none;fillColor=none;fontSize=16;" parent="1" vertex="1">
          <mxGeometry x="500" y="505" width="50" height="30" as="geometry" />
        </mxCell>
        <mxCell id="8mWVaUGxtgPUPD3ItH42-2" value="0..n" style="text;html=1;align=center;verticalAlign=middle;resizable=0;points=[];autosize=1;strokeColor=none;fillColor=none;fontSize=16;" parent="1" vertex="1">
          <mxGeometry x="886" y="466.7" width="50" height="30" as="geometry" />
        </mxCell>
        <mxCell id="8mWVaUGxtgPUPD3ItH42-4" style="edgeStyle=none;curved=1;rounded=0;orthogonalLoop=1;jettySize=auto;html=1;exitX=0.5;exitY=0;exitDx=0;exitDy=0;fontSize=12;startSize=8;endSize=8;" parent="1" source="ODd8JgYDGWRqZiN91gh2-35" target="ODd8JgYDGWRqZiN91gh2-35" edge="1">
          <mxGeometry relative="1" as="geometry" />
        </mxCell>
        <mxCell id="8mWVaUGxtgPUPD3ItH42-7" value="owns" style="text;html=1;align=center;verticalAlign=middle;resizable=0;points=[];autosize=1;strokeColor=none;fillColor=none;fontSize=16;" parent="1" vertex="1">
          <mxGeometry x="760" y="623" width="60" height="30" as="geometry" />
        </mxCell>
        <mxCell id="8mWVaUGxtgPUPD3ItH42-9" value="1" style="text;html=1;align=center;verticalAlign=middle;resizable=0;points=[];autosize=1;strokeColor=none;fillColor=none;fontSize=16;" parent="1" vertex="1">
          <mxGeometry x="635" y="789.32" width="30" height="30" as="geometry" />
        </mxCell>
        <mxCell id="8mWVaUGxtgPUPD3ItH42-10" value="1" style="text;html=1;align=center;verticalAlign=middle;resizable=0;points=[];autosize=1;strokeColor=none;fillColor=none;fontSize=16;" parent="1" vertex="1">
          <mxGeometry x="906" y="505" width="30" height="30" as="geometry" />
        </mxCell>
        <mxCell id="-APXzpNi7e3R-6h7DP6N-13" value="1..n" style="text;html=1;align=center;verticalAlign=middle;resizable=0;points=[];autosize=1;strokeColor=none;fillColor=none;" parent="1" vertex="1">
          <mxGeometry x="195" y="570" width="40" height="30" as="geometry" />
        </mxCell>
        <mxCell id="-APXzpNi7e3R-6h7DP6N-14" value="1" style="text;html=1;align=center;verticalAlign=middle;resizable=0;points=[];autosize=1;strokeColor=none;fillColor=none;" parent="1" vertex="1">
          <mxGeometry x="550" y="70" width="30" height="30" as="geometry" />
        </mxCell>
        <mxCell id="-APXzpNi7e3R-6h7DP6N-20" value="Security" style="html=1;" parent="1" vertex="1">
          <mxGeometry x="600" y="220" width="120" height="40" as="geometry" />
        </mxCell>
        <mxCell id="-APXzpNi7e3R-6h7DP6N-21" value="0..n" style="text;html=1;align=center;verticalAlign=middle;resizable=0;points=[];autosize=1;strokeColor=none;fillColor=none;fontSize=12;" parent="1" vertex="1">
          <mxGeometry x="595" y="395.0499999999999" width="40" height="30" as="geometry" />
        </mxCell>
        <mxCell id="-APXzpNi7e3R-6h7DP6N-22" value="1" style="edgeLabel;html=1;align=center;verticalAlign=middle;resizable=0;points=[];" parent="1" connectable="0" vertex="1">
          <mxGeometry x="490" y="339.9975862068967" as="geometry">
            <mxPoint x="79" y="5" as="offset" />
          </mxGeometry>
        </mxCell>
        <mxCell id="-APXzpNi7e3R-6h7DP6N-31" value="&amp;lt;External&amp;gt;&lt;br&gt;Payment System" style="html=1;" parent="1" vertex="1">
          <mxGeometry x="760" y="290" width="110" height="50" as="geometry" />
        </mxCell>
        <mxCell id="-APXzpNi7e3R-6h7DP6N-32" value="&amp;lt;External&amp;gt;&lt;br&gt;Supplier System" style="html=1;" parent="1" vertex="1">
          <mxGeometry x="450" y="290" width="110" height="50" as="geometry" />
        </mxCell>
        <mxCell id="-APXzpNi7e3R-6h7DP6N-33" style="edgeStyle=orthogonalEdgeStyle;rounded=0;orthogonalLoop=1;jettySize=auto;html=1;strokeWidth=1;startArrow=none;startFill=0;endArrow=none;endFill=0;startSize=7;endSize=9;" parent="1" source="-APXzpNi7e3R-6h7DP6N-34" target="-APXzpNi7e3R-6h7DP6N-31" edge="1">
          <mxGeometry relative="1" as="geometry" />
        </mxCell>
        <mxCell id="-APXzpNi7e3R-6h7DP6N-34" value="PaymentAdapter" style="html=1;" parent="1" vertex="1">
          <mxGeometry x="760" y="218.4" width="110" height="40" as="geometry" />
        </mxCell>
        <mxCell id="-APXzpNi7e3R-6h7DP6N-35" style="edgeStyle=orthogonalEdgeStyle;rounded=0;orthogonalLoop=1;jettySize=auto;html=1;strokeWidth=1;startArrow=none;startFill=0;endArrow=none;endFill=0;startSize=7;endSize=9;" parent="1" source="-APXzpNi7e3R-6h7DP6N-36" target="-APXzpNi7e3R-6h7DP6N-32" edge="1">
          <mxGeometry relative="1" as="geometry" />
        </mxCell>
        <mxCell id="-APXzpNi7e3R-6h7DP6N-36" value="SupplierAdapter" style="html=1;" parent="1" vertex="1">
          <mxGeometry x="450" y="221.7" width="110" height="36.7" as="geometry" />
        </mxCell>
        <mxCell id="p_VHPN1_gjO6qZcoMLTe-69" style="edgeStyle=orthogonalEdgeStyle;rounded=0;orthogonalLoop=1;jettySize=auto;html=1;entryX=1;entryY=0.5;entryDx=0;entryDy=0;endArrow=block;endFill=0;" parent="1" edge="1">
          <mxGeometry relative="1" as="geometry">
            <mxPoint x="240" y="1168.5000000000002" as="sourcePoint" />
          </mxGeometry>
        </mxCell>
        <mxCell id="p_VHPN1_gjO6qZcoMLTe-87" style="edgeStyle=orthogonalEdgeStyle;rounded=0;orthogonalLoop=1;jettySize=auto;html=1;entryX=0.5;entryY=1;entryDx=0;entryDy=0;endArrow=none;endFill=0;" parent="1" source="p_VHPN1_gjO6qZcoMLTe-140" target="Y32BuV7cdeY4dN6Mmz1U-1" edge="1">
          <mxGeometry relative="1" as="geometry">
            <mxPoint x="715.0000000000002" y="960" as="sourcePoint" />
            <mxPoint x="856" y="744" as="targetPoint" />
          </mxGeometry>
        </mxCell>
        <mxCell id="p_VHPN1_gjO6qZcoMLTe-92" style="edgeStyle=orthogonalEdgeStyle;rounded=0;orthogonalLoop=1;jettySize=auto;html=1;entryX=0.375;entryY=-0.018;entryDx=0;entryDy=0;strokeWidth=1;startArrow=none;startFill=0;endArrow=none;endFill=0;startSize=7;endSize=14;exitX=0.5;exitY=0;exitDx=0;exitDy=0;entryPerimeter=0;" parent="1" source="p_VHPN1_gjO6qZcoMLTe-136" target="p_VHPN1_gjO6qZcoMLTe-137" edge="1">
          <mxGeometry relative="1" as="geometry">
            <mxPoint x="753.5" y="840.49" as="targetPoint" />
          </mxGeometry>
        </mxCell>
        <mxCell id="p_VHPN1_gjO6qZcoMLTe-99" style="edgeStyle=orthogonalEdgeStyle;rounded=0;orthogonalLoop=1;jettySize=auto;html=1;strokeWidth=1;startArrow=none;startFill=0;endArrow=none;endFill=0;startSize=7;endSize=9;dashed=1;" parent="1" source="p_VHPN1_gjO6qZcoMLTe-100" edge="1">
          <mxGeometry relative="1" as="geometry">
            <mxPoint x="580" y="1050" as="targetPoint" />
          </mxGeometry>
        </mxCell>
        <mxCell id="p_VHPN1_gjO6qZcoMLTe-100" value="Direct" style="html=1;" parent="1" vertex="1">
          <mxGeometry x="450" y="1025" width="110" height="50" as="geometry" />
        </mxCell>
        <mxCell id="p_VHPN1_gjO6qZcoMLTe-101" style="edgeStyle=orthogonalEdgeStyle;rounded=0;orthogonalLoop=1;jettySize=auto;html=1;entryX=1;entryY=0.5;entryDx=0;entryDy=0;strokeWidth=1;startArrow=none;startFill=0;endArrow=none;endFill=0;startSize=7;endSize=9;dashed=1;" parent="1" source="p_VHPN1_gjO6qZcoMLTe-102" target="p_VHPN1_gjO6qZcoMLTe-105" edge="1">
          <mxGeometry relative="1" as="geometry">
            <Array as="points">
              <mxPoint x="580" y="990" />
              <mxPoint x="580" y="1170" />
            </Array>
          </mxGeometry>
        </mxCell>
        <mxCell id="p_VHPN1_gjO6qZcoMLTe-102" value="Bid" style="html=1;" parent="1" vertex="1">
          <mxGeometry x="450" y="965" width="110" height="50" as="geometry" />
        </mxCell>
        <mxCell id="p_VHPN1_gjO6qZcoMLTe-103" style="edgeStyle=orthogonalEdgeStyle;rounded=0;orthogonalLoop=1;jettySize=auto;html=1;strokeWidth=1;startArrow=none;startFill=0;endArrow=none;endFill=0;startSize=7;endSize=9;dashed=1;" parent="1" source="p_VHPN1_gjO6qZcoMLTe-104" edge="1">
          <mxGeometry relative="1" as="geometry">
            <mxPoint x="580" y="1110" as="targetPoint" />
          </mxGeometry>
        </mxCell>
        <mxCell id="p_VHPN1_gjO6qZcoMLTe-104" value="Auction" style="html=1;" parent="1" vertex="1">
          <mxGeometry x="450" y="1085" width="110" height="50" as="geometry" />
        </mxCell>
        <mxCell id="p_VHPN1_gjO6qZcoMLTe-105" value="Random" style="html=1;" parent="1" vertex="1">
          <mxGeometry x="450" y="1145" width="110" height="50" as="geometry" />
        </mxCell>
        <mxCell id="p_VHPN1_gjO6qZcoMLTe-106" style="edgeStyle=orthogonalEdgeStyle;rounded=0;orthogonalLoop=1;jettySize=auto;html=1;dashed=1;strokeWidth=1;startArrow=block;startFill=0;endArrow=none;endFill=0;startSize=7;endSize=9;exitX=0.531;exitY=0.997;exitDx=0;exitDy=0;exitPerimeter=0;" parent="1" source="Y32BuV7cdeY4dN6Mmz1U-5" edge="1">
          <mxGeometry relative="1" as="geometry">
            <mxPoint x="580" y="1068" as="targetPoint" />
            <mxPoint x="590" y="960" as="sourcePoint" />
          </mxGeometry>
        </mxCell>
        <mxCell id="p_VHPN1_gjO6qZcoMLTe-107" style="edgeStyle=orthogonalEdgeStyle;rounded=0;orthogonalLoop=1;jettySize=auto;html=1;entryX=0;entryY=0.5;entryDx=0;entryDy=0;endArrow=none;endFill=0;exitX=1;exitY=0.5;exitDx=0;exitDy=0;" parent="1" source="Y32BuV7cdeY4dN6Mmz1U-5" target="Y32BuV7cdeY4dN6Mmz1U-1" edge="1">
          <mxGeometry relative="1" as="geometry">
            <mxPoint x="640" y="929" as="sourcePoint" />
            <mxPoint x="776" y="727" as="targetPoint" />
            <Array as="points">
              <mxPoint x="595" y="929" />
              <mxPoint x="696" y="929" />
              <mxPoint x="696" y="760" />
              <mxPoint x="780" y="760" />
              <mxPoint x="780" y="712" />
            </Array>
          </mxGeometry>
        </mxCell>
        <mxCell id="p_VHPN1_gjO6qZcoMLTe-125" value="1..4" style="text;html=1;align=center;verticalAlign=middle;resizable=0;points=[];autosize=1;strokeColor=none;fillColor=none;" parent="1" vertex="1">
          <mxGeometry x="650" y="898.98" width="40" height="30" as="geometry" />
        </mxCell>
        <mxCell id="p_VHPN1_gjO6qZcoMLTe-126" value="1..n" style="text;html=1;align=center;verticalAlign=middle;resizable=0;points=[];autosize=1;strokeColor=none;fillColor=none;" parent="1" vertex="1">
          <mxGeometry x="860" y="746.7" width="40" height="30" as="geometry" />
        </mxCell>
        <mxCell id="p_VHPN1_gjO6qZcoMLTe-128" value="1" style="text;html=1;align=center;verticalAlign=middle;resizable=0;points=[];autosize=1;strokeColor=none;fillColor=none;" parent="1" vertex="1">
          <mxGeometry x="750" y="729.3199999999999" width="30" height="30" as="geometry" />
        </mxCell>
        <mxCell id="p_VHPN1_gjO6qZcoMLTe-136" value="ConcreteConsntraint2" style="rounded=0;whiteSpace=wrap;html=1;" parent="1" vertex="1">
          <mxGeometry x="883.5" y="869.99" width="120" height="30.01" as="geometry" />
        </mxCell>
        <mxCell id="p_VHPN1_gjO6qZcoMLTe-137" value="ConcreteConsntraint1" style="rounded=0;whiteSpace=wrap;html=1;" parent="1" vertex="1">
          <mxGeometry x="708.5" y="869.99" width="120" height="28.99" as="geometry" />
        </mxCell>
        <mxCell id="p_VHPN1_gjO6qZcoMLTe-141" style="edgeStyle=orthogonalEdgeStyle;rounded=0;orthogonalLoop=1;jettySize=auto;html=1;startArrow=block;startFill=0;endArrow=none;endFill=0;" parent="1" source="p_VHPN1_gjO6qZcoMLTe-140" edge="1">
          <mxGeometry relative="1" as="geometry">
            <mxPoint x="860" y="850" as="targetPoint" />
            <Array as="points">
              <mxPoint x="860" y="830" />
              <mxPoint x="860" y="830" />
            </Array>
          </mxGeometry>
        </mxCell>
        <mxCell id="p_VHPN1_gjO6qZcoMLTe-140" value="&amp;lt;&amp;lt;Abstract Class&amp;gt;&amp;gt;&lt;br style=&quot;border-color: var(--border-color); padding: 0px; margin: 0px; font-weight: 700;&quot;&gt;&lt;span style=&quot;font-weight: 700;&quot;&gt;ProductConstraints&lt;/span&gt;" style="rounded=0;whiteSpace=wrap;html=1;" parent="1" vertex="1">
          <mxGeometry x="796" y="772.31" width="120" height="47.01" as="geometry" />
        </mxCell>
        <mxCell id="p_VHPN1_gjO6qZcoMLTe-147" style="edgeStyle=orthogonalEdgeStyle;rounded=0;orthogonalLoop=1;jettySize=auto;html=1;entryX=0;entryY=0.5;entryDx=0;entryDy=0;startArrow=none;startFill=0;endArrow=none;endFill=0;exitX=1;exitY=0.5;exitDx=0;exitDy=0;" parent="1" source="p_VHPN1_gjO6qZcoMLTe-148" target="ODd8JgYDGWRqZiN91gh2-123" edge="1">
          <mxGeometry relative="1" as="geometry" />
        </mxCell>
        <mxCell id="p_VHPN1_gjO6qZcoMLTe-148" value="UserHistory" style="rounded=0;whiteSpace=wrap;html=1;" parent="1" vertex="1">
          <mxGeometry x="10" y="479.7" width="120" height="34" as="geometry" />
        </mxCell>
        <mxCell id="Q3EcY2VjpeWDla9Mks9k-3" style="edgeStyle=orthogonalEdgeStyle;rounded=0;orthogonalLoop=1;jettySize=auto;html=1;entryX=0.5;entryY=1;entryDx=0;entryDy=0;endArrow=none;endFill=0;" parent="1" source="p_VHPN1_gjO6qZcoMLTe-149" target="ODd8JgYDGWRqZiN91gh2-27" edge="1">
          <mxGeometry relative="1" as="geometry" />
        </mxCell>
        <mxCell id="p_VHPN1_gjO6qZcoMLTe-149" value="appHistory" style="rounded=0;whiteSpace=wrap;html=1;" parent="1" vertex="1">
          <mxGeometry x="936" y="606.7" width="120" height="30" as="geometry" />
        </mxCell>
        <mxCell id="p_VHPN1_gjO6qZcoMLTe-152" style="edgeStyle=orthogonalEdgeStyle;rounded=0;orthogonalLoop=1;jettySize=auto;html=1;startArrow=none;startFill=0;endArrow=none;endFill=0;exitX=1;exitY=0.5;exitDx=0;exitDy=0;entryX=0.5;entryY=0;entryDx=0;entryDy=0;" parent="1" source="p_VHPN1_gjO6qZcoMLTe-149" target="p_VHPN1_gjO6qZcoMLTe-149" edge="1">
          <mxGeometry relative="1" as="geometry">
            <mxPoint x="40" y="570" as="targetPoint" />
            <Array as="points">
              <mxPoint x="1080" y="622" />
              <mxPoint x="1080" y="580" />
              <mxPoint x="1000" y="580" />
            </Array>
          </mxGeometry>
        </mxCell>
        <mxCell id="p_VHPN1_gjO6qZcoMLTe-153" value="granted" style="text;html=1;align=center;verticalAlign=middle;resizable=0;points=[];autosize=1;strokeColor=none;fillColor=none;" parent="1" vertex="1">
          <mxGeometry x="1080" y="593" width="60" height="30" as="geometry" />
        </mxCell>
        <mxCell id="p_VHPN1_gjO6qZcoMLTe-154" value="grantor" style="text;html=1;align=center;verticalAlign=middle;resizable=0;points=[];autosize=1;strokeColor=none;fillColor=none;" parent="1" vertex="1">
          <mxGeometry x="1010" y="555" width="60" height="30" as="geometry" />
        </mxCell>
        <mxCell id="p_VHPN1_gjO6qZcoMLTe-155" value="1" style="text;html=1;align=center;verticalAlign=middle;resizable=0;points=[];autosize=1;strokeColor=none;fillColor=none;" parent="1" vertex="1">
          <mxGeometry x="100" y="449.7" width="30" height="30" as="geometry" />
        </mxCell>
        <mxCell id="p_VHPN1_gjO6qZcoMLTe-156" value="1" style="text;html=1;align=center;verticalAlign=middle;resizable=0;points=[];autosize=1;strokeColor=none;fillColor=none;" parent="1" vertex="1">
          <mxGeometry x="215" y="475" width="30" height="30" as="geometry" />
        </mxCell>
        <mxCell id="p_VHPN1_gjO6qZcoMLTe-157" value="history" style="html=1;" parent="1" vertex="1">
          <mxGeometry x="750" y="420.05" width="120" height="40" as="geometry" />
        </mxCell>
        <mxCell id="p_VHPN1_gjO6qZcoMLTe-159" value="1" style="text;html=1;align=center;verticalAlign=middle;resizable=0;points=[];autosize=1;strokeColor=none;fillColor=none;" parent="1" vertex="1">
          <mxGeometry x="875" y="415" width="30" height="30" as="geometry" />
        </mxCell>
        <mxCell id="p_VHPN1_gjO6qZcoMLTe-160" value="1" style="text;html=1;align=center;verticalAlign=middle;resizable=0;points=[];autosize=1;strokeColor=none;fillColor=none;" parent="1" vertex="1">
          <mxGeometry x="960" y="449.7" width="30" height="30" as="geometry" />
        </mxCell>
        <mxCell id="Q3EcY2VjpeWDla9Mks9k-2" style="edgeStyle=orthogonalEdgeStyle;rounded=0;orthogonalLoop=1;jettySize=auto;html=1;endArrow=none;endFill=0;" parent="1" source="Q3EcY2VjpeWDla9Mks9k-1" edge="1">
          <mxGeometry relative="1" as="geometry">
            <mxPoint x="495" y="672.3799999999998" as="targetPoint" />
          </mxGeometry>
        </mxCell>
        <mxCell id="Q3EcY2VjpeWDla9Mks9k-1" value="buyer" style="html=1;" parent="1" vertex="1">
          <mxGeometry x="355" y="652.3799999999999" width="120" height="40" as="geometry" />
        </mxCell>
        <mxCell id="Q3EcY2VjpeWDla9Mks9k-4" value="&lt;span style=&quot;color: rgb(0, 0, 0); font-family: Helvetica; font-size: 16px; font-style: normal; font-variant-ligatures: normal; font-variant-caps: normal; font-weight: 400; letter-spacing: normal; orphans: 2; text-align: center; text-indent: 0px; text-transform: none; widows: 2; word-spacing: 0px; -webkit-text-stroke-width: 0px; background-color: rgb(251, 251, 251); text-decoration-thickness: initial; text-decoration-style: initial; text-decoration-color: initial; float: none; display: inline !important;&quot;&gt;1&lt;/span&gt;" style="text;whiteSpace=wrap;html=1;" parent="1" vertex="1">
          <mxGeometry x="1214" y="570" width="10" height="30" as="geometry" />
        </mxCell>
        <mxCell id="Q3EcY2VjpeWDla9Mks9k-5" value="&lt;span style=&quot;color: rgb(0, 0, 0); font-family: Helvetica; font-size: 16px; font-style: normal; font-variant-ligatures: normal; font-variant-caps: normal; font-weight: 400; letter-spacing: normal; orphans: 2; text-align: center; text-indent: 0px; text-transform: none; widows: 2; word-spacing: 0px; -webkit-text-stroke-width: 0px; background-color: rgb(251, 251, 251); text-decoration-thickness: initial; text-decoration-style: initial; text-decoration-color: initial; float: none; display: inline !important;&quot;&gt;1&lt;/span&gt;" style="text;whiteSpace=wrap;html=1;" parent="1" vertex="1">
          <mxGeometry x="980" y="580" width="10" height="30" as="geometry" />
        </mxCell>
        <mxCell id="Q3EcY2VjpeWDla9Mks9k-7" value="0..n" style="text;html=1;align=center;verticalAlign=middle;resizable=0;points=[];autosize=1;strokeColor=none;fillColor=none;" parent="1" vertex="1">
          <mxGeometry x="1050" y="615" width="40" height="30" as="geometry" />
        </mxCell>
        <mxCell id="xhRCBwl60sFO-Fb4JAi2-1" value="&lt;&lt;Enumiration&gt;&gt;&#xa;Roles" style="swimlane;fontStyle=0;childLayout=stackLayout;horizontal=1;startSize=26;fillColor=none;horizontalStack=0;resizeParent=1;resizeParentMax=0;resizeLast=0;collapsible=1;marginBottom=0;fontSize=12;" parent="1" vertex="1">
          <mxGeometry x="215" y="665.6800000000001" width="91.5" height="130" as="geometry">
            <mxRectangle x="600" y="610" width="130" height="40" as="alternateBounds" />
          </mxGeometry>
        </mxCell>
        <mxCell id="xhRCBwl60sFO-Fb4JAi2-2" value="seller" style="text;strokeColor=none;fillColor=none;align=left;verticalAlign=top;spacingLeft=4;spacingRight=4;overflow=hidden;rotatable=0;points=[[0,0.5],[1,0.5]];portConstraint=eastwest;fontSize=12;" parent="xhRCBwl60sFO-Fb4JAi2-1" vertex="1">
          <mxGeometry y="26" width="91.5" height="26" as="geometry" />
        </mxCell>
        <mxCell id="xhRCBwl60sFO-Fb4JAi2-3" value="creator" style="text;strokeColor=none;fillColor=none;align=left;verticalAlign=top;spacingLeft=4;spacingRight=4;overflow=hidden;rotatable=0;points=[[0,0.5],[1,0.5]];portConstraint=eastwest;fontSize=12;" parent="xhRCBwl60sFO-Fb4JAi2-1" vertex="1">
          <mxGeometry y="52" width="91.5" height="26" as="geometry" />
        </mxCell>
        <mxCell id="xhRCBwl60sFO-Fb4JAi2-4" value="manager" style="text;strokeColor=none;fillColor=none;align=left;verticalAlign=top;spacingLeft=4;spacingRight=4;overflow=hidden;rotatable=0;points=[[0,0.5],[1,0.5]];portConstraint=eastwest;fontSize=12;" parent="xhRCBwl60sFO-Fb4JAi2-1" vertex="1">
          <mxGeometry y="78" width="91.5" height="26" as="geometry" />
        </mxCell>
        <mxCell id="xhRCBwl60sFO-Fb4JAi2-5" value="owner" style="text;strokeColor=none;fillColor=none;align=left;verticalAlign=top;spacingLeft=4;spacingRight=4;overflow=hidden;rotatable=0;points=[[0,0.5],[1,0.5]];portConstraint=eastwest;fontSize=12;" parent="xhRCBwl60sFO-Fb4JAi2-1" vertex="1">
          <mxGeometry y="104" width="91.5" height="26" as="geometry" />
        </mxCell>
        <mxCell id="v24xrxlarrLK1afdBzj7-2" value="1..n" style="edgeLabel;html=1;align=center;verticalAlign=middle;resizable=0;points=[];" parent="1" vertex="1" connectable="0">
          <mxGeometry x="259.9999999999998" y="300.00117647058835" as="geometry">
            <mxPoint x="-3" y="129" as="offset" />
          </mxGeometry>
        </mxCell>
        <mxCell id="v24xrxlarrLK1afdBzj7-3" value="1" style="text;html=1;align=center;verticalAlign=middle;resizable=0;points=[];autosize=1;strokeColor=none;fillColor=none;" parent="1" vertex="1">
          <mxGeometry x="210" y="216.7" width="30" height="30" as="geometry" />
        </mxCell>
        <mxCell id="Y32BuV7cdeY4dN6Mmz1U-1" value="PurchasePolicy" style="html=1;" parent="1" vertex="1">
          <mxGeometry x="801" y="692.3799999999999" width="110" height="40" as="geometry" />
        </mxCell>
        <mxCell id="Y32BuV7cdeY4dN6Mmz1U-5" value="&amp;lt;&amp;lt;interface&amp;gt;&amp;gt;&lt;br&gt;purchaceFormat" style="html=1;" parent="1" vertex="1">
          <mxGeometry x="530" y="912.28" width="120" height="37.38" as="geometry" />
        </mxCell>
        <mxCell id="Y32BuV7cdeY4dN6Mmz1U-13" value="" style="group" parent="1" vertex="1" connectable="0">
          <mxGeometry x="1289" y="779.32" width="295" height="139.65999999999997" as="geometry" />
        </mxCell>
        <mxCell id="Y32BuV7cdeY4dN6Mmz1U-8" value="ConcreteConsntraint2" style="rounded=0;whiteSpace=wrap;html=1;" parent="Y32BuV7cdeY4dN6Mmz1U-13" vertex="1">
          <mxGeometry x="175" y="109.64999999999998" width="120" height="30.01" as="geometry" />
        </mxCell>
        <mxCell id="Y32BuV7cdeY4dN6Mmz1U-9" value="ConcreteConsntraint1" style="rounded=0;whiteSpace=wrap;html=1;" parent="Y32BuV7cdeY4dN6Mmz1U-13" vertex="1">
          <mxGeometry y="109.64999999999998" width="120" height="28.99" as="geometry" />
        </mxCell>
        <mxCell id="Y32BuV7cdeY4dN6Mmz1U-7" style="edgeStyle=orthogonalEdgeStyle;rounded=0;orthogonalLoop=1;jettySize=auto;html=1;entryX=0.375;entryY=-0.018;entryDx=0;entryDy=0;strokeWidth=1;startArrow=none;startFill=0;endArrow=none;endFill=0;startSize=7;endSize=14;exitX=0.5;exitY=0;exitDx=0;exitDy=0;entryPerimeter=0;" parent="Y32BuV7cdeY4dN6Mmz1U-13" source="Y32BuV7cdeY4dN6Mmz1U-8" target="Y32BuV7cdeY4dN6Mmz1U-9" edge="1">
          <mxGeometry relative="1" as="geometry">
            <mxPoint x="45" y="80.14999999999998" as="targetPoint" />
          </mxGeometry>
        </mxCell>
        <mxCell id="Y32BuV7cdeY4dN6Mmz1U-12" style="edgeStyle=orthogonalEdgeStyle;rounded=0;orthogonalLoop=1;jettySize=auto;html=1;startArrow=block;startFill=0;endArrow=none;endFill=0;" parent="Y32BuV7cdeY4dN6Mmz1U-13" source="Y32BuV7cdeY4dN6Mmz1U-11" edge="1">
          <mxGeometry relative="1" as="geometry">
            <mxPoint x="145" y="90.67999999999995" as="targetPoint" />
          </mxGeometry>
        </mxCell>
        <mxCell id="Y32BuV7cdeY4dN6Mmz1U-11" value="&amp;lt;&amp;lt;Abstract Class&amp;gt;&amp;gt;&lt;br style=&quot;border-color: var(--border-color); padding: 0px; margin: 0px; font-weight: 700;&quot;&gt;DiscountsConstraints" style="rounded=0;whiteSpace=wrap;html=1;" parent="Y32BuV7cdeY4dN6Mmz1U-13" vertex="1">
          <mxGeometry x="85" width="120" height="47.01" as="geometry" />
        </mxCell>
        <mxCell id="Y32BuV7cdeY4dN6Mmz1U-15" value="&lt;span style=&quot;color: rgb(0, 0, 0); font-family: Helvetica; font-size: 12px; font-style: normal; font-variant-ligatures: normal; font-variant-caps: normal; font-weight: 400; letter-spacing: normal; orphans: 2; text-align: center; text-indent: 0px; text-transform: none; widows: 2; word-spacing: 0px; -webkit-text-stroke-width: 0px; background-color: rgb(251, 251, 251); text-decoration-thickness: initial; text-decoration-style: initial; text-decoration-color: initial; float: none; display: inline !important;&quot;&gt;1..n&lt;/span&gt;" style="text;whiteSpace=wrap;html=1;" parent="1" vertex="1">
          <mxGeometry x="1440" y="740.68" width="30" height="30" as="geometry" />
        </mxCell>
        <mxCell id="Y32BuV7cdeY4dN6Mmz1U-16" value="1" style="text;html=1;align=center;verticalAlign=middle;resizable=0;points=[];autosize=1;strokeColor=none;fillColor=none;" parent="1" vertex="1">
          <mxGeometry x="1304" y="710.68" width="30" height="30" as="geometry" />
        </mxCell>
        <mxCell id="f4669zx7-eFwIOXkD8-4-3" value="Logger" style="rounded=0;whiteSpace=wrap;html=1;" parent="1" vertex="1">
          <mxGeometry x="1300" y="216.7" width="120" height="38.4" as="geometry" />
        </mxCell>
        <mxCell id="f4669zx7-eFwIOXkD8-4-5" value="1" style="text;html=1;align=center;verticalAlign=middle;resizable=0;points=[];autosize=1;strokeColor=none;fillColor=none;" parent="1" vertex="1">
          <mxGeometry x="260" y="191.7" width="30" height="30" as="geometry" />
        </mxCell>
        <mxCell id="f4669zx7-eFwIOXkD8-4-6" value="1" style="text;html=1;align=center;verticalAlign=middle;resizable=0;points=[];autosize=1;strokeColor=none;fillColor=none;" parent="1" vertex="1">
          <mxGeometry x="475" y="191.7" width="30" height="30" as="geometry" />
        </mxCell>
        <mxCell id="f4669zx7-eFwIOXkD8-4-7" value="1" style="text;html=1;align=center;verticalAlign=middle;resizable=0;points=[];autosize=1;strokeColor=none;fillColor=none;" parent="1" vertex="1">
          <mxGeometry x="630" y="191.7" width="30" height="30" as="geometry" />
        </mxCell>
        <mxCell id="f4669zx7-eFwIOXkD8-4-8" value="1" style="text;html=1;align=center;verticalAlign=middle;resizable=0;points=[];autosize=1;strokeColor=none;fillColor=none;" parent="1" vertex="1">
          <mxGeometry x="780" y="191.7" width="30" height="30" as="geometry" />
        </mxCell>
        <mxCell id="f4669zx7-eFwIOXkD8-4-9" value="1" style="text;html=1;align=center;verticalAlign=middle;resizable=0;points=[];autosize=1;strokeColor=none;fillColor=none;" parent="1" vertex="1">
          <mxGeometry x="1146" y="190" width="30" height="30" as="geometry" />
        </mxCell>
        <mxCell id="f4669zx7-eFwIOXkD8-4-10" value="1" style="text;html=1;align=center;verticalAlign=middle;resizable=0;points=[];autosize=1;strokeColor=none;fillColor=none;" parent="1" vertex="1">
          <mxGeometry x="1330" y="191.7" width="30" height="30" as="geometry" />
        </mxCell>
        <mxCell id="Ld3xxpGqD0_XtxCi6bYy-2" value="inventory" style="rounded=0;whiteSpace=wrap;html=1;" vertex="1" parent="1">
          <mxGeometry x="1144" y="596.7" width="120" height="40" as="geometry" />
        </mxCell>
        <mxCell id="Ld3xxpGqD0_XtxCi6bYy-5" value="&lt;span style=&quot;color: rgb(0, 0, 0); font-family: Helvetica; font-size: 16px; font-style: normal; font-variant-ligatures: normal; font-variant-caps: normal; font-weight: 400; letter-spacing: normal; orphans: 2; text-align: center; text-indent: 0px; text-transform: none; widows: 2; word-spacing: 0px; -webkit-text-stroke-width: 0px; background-color: rgb(251, 251, 251); text-decoration-thickness: initial; text-decoration-style: initial; text-decoration-color: initial; float: none; display: inline !important;&quot;&gt;1..n&lt;/span&gt;" style="text;whiteSpace=wrap;html=1;" vertex="1" parent="1">
          <mxGeometry x="1204" y="645" width="10" height="30" as="geometry" />
        </mxCell>
      </root>
    </mxGraphModel>
  </diagram>
</mxfile>
